<?xml version="1.0" encoding="utf-8"?>
<!-- Generator: Adobe Illustrator 21.1.0, SVG Export Plug-In . SVG Version: 6.00 Build 0)  -->
<svg version="1.1" id="Layer_1" xmlns="http://www.w3.org/2000/svg" xmlns:xlink="http://www.w3.org/1999/xlink" x="0px" y="0px"
	 viewBox="0 0 512 512" style="enable-background:new 0 0 512 512;" xml:space="preserve">
<style type="text/css">
	.st0{fill:#96C8EA;}
</style>
<path class="st0" d="M256,2.6C116,2.6,2.6,116,2.6,256S116,509.4,256,509.4S509.4,396,509.4,256S396,2.6,256,2.6z M399.7,265.5
	l-22.6-0.2v115.6c0,8.5-6.9,15.4-15.4,15.4h-60v-88.5c0-12-9.7-21.7-21.7-21.7h-48.2c-12,0-21.7,9.7-21.7,21.7v88.5h-60
	c-8.5,0-15.4-6.9-15.4-15.4V263.7l-22.7-0.2c-9-0.1-13.5-11-7.1-17.4l142.8-142.8c4-4,10.4-4,14.4,0L407,248.1
	C413.4,254.6,408.8,265.6,399.7,265.5z"/>
<g id="Layer_1_1_">
</g>
</svg>
