<?xml version="1.0" encoding="utf-8"?>
<!-- Generator: Adobe Illustrator 15.1.0, SVG Export Plug-In . SVG Version: 6.00 Build 0)  -->
<!DOCTYPE svg PUBLIC "-//W3C//DTD SVG 1.1//EN" "http://www.w3.org/Graphics/SVG/1.1/DTD/svg11.dtd">
<svg version="1.1" id="HvA_logo" xmlns="http://www.w3.org/2000/svg" xmlns:xlink="http://www.w3.org/1999/xlink" x="0px" y="0px"
	 width="169.531px" height="81.186px" viewBox="0 0 169.531 81.186" enable-background="new 0 0 169.531 81.186"
	 xml:space="preserve">
<g>
	<g>
		<path d="M107.122,51.351h0.86c1.531,0,1.563-0.861,1.563-4.948V35.45c0-4.076-0.032-4.938-1.595-4.938h-0.829V29.59h9.818v0.924
			h-0.827c-1.559,0-1.591,0.86-1.591,4.938v4.554h8.018V35.45c0-4.076-0.031-4.938-1.59-4.938h-0.827V29.59h9.818v0.924h-0.829
			c-1.562,0-1.594,0.86-1.594,4.938v10.952c0,4.087,0.032,4.948,1.562,4.948h0.86v0.924h-9.818v-0.924h0.827
			c1.559,0,1.59-0.861,1.59-4.948v-5.299h-8.018v5.299c0,4.087,0.032,4.948,1.591,4.948h0.827v0.924h-9.818V51.351z"/>
		<path d="M148.26,37.217c-1.18,0-1.53,0.99-2.04,2.205l-3.888,9.421c-0.479,1.182-0.925,2.395-1.308,3.641h-2.135
			c-0.287-0.831-0.574-1.725-0.893-2.521l-4.239-10.636c-0.542-1.373-0.637-2.108-1.562-2.108h-0.542v-0.924h8.733v0.924h-1.084
			c-0.542,0-1.083,0.129-1.083,0.703c0,0.16,0.096,0.543,0.287,1.086l3.124,8.145h0.062l3.155-7.983
			c0.16-0.447,0.255-0.8,0.255-1.086c0-0.543-0.542-0.863-1.116-0.863h-0.765v-0.924h5.036L148.26,37.217L148.26,37.217z"/>
		<path d="M159.389,43.978h-7.303l3.795-9.101L159.389,43.978z M159.325,52.432h10.206v-0.924h-0.671
			c-1.243,0-1.755-1.28-2.138-2.303l-5.898-15.251c-0.575-1.463-1.053-2.927-1.467-4.52h-2.838
			c-0.383,1.369-0.861,2.578-1.372,3.787L148.93,48.15c-1.053,2.527-1.659,3.358-3.284,3.358v0.924h6.889v-0.924h-0.861
			c-1.085-0.032-1.723-0.479-1.723-1.344c0-0.801,0.384-1.952,0.83-3.039l0.86-2.048h8.164l0.829,2.145
			c0.574,1.472,1.084,2.719,1.084,3.326c0,0.928-0.956,0.928-2.391,0.96v0.924H159.325z"/>
	</g>
	<g>
		<path d="M0,40.396c9.446-9.987,22.861-15.708,28.119-15.842c1.306,0.134,1.566,0.772,1.584,1.188
			c-0.018,0.63-0.54,1.354-2.376,2.376c-3.815,2.232-9.911,6.397-9.901,8.315c-0.01,0.146,0.246,0.325,0.396,0.396
			c1.447-0.071,15.088-8.515,34.061-8.316c3.444-0.198,8.762,0.847,8.713,3.168c0.049,1.078-0.854,2.21-3.168,2.772
			c-11.543,2.017-21.439,6.521-21.386,8.713c-0.054,0.654,0.236,0.889,0.792,0.791c1.884,0.098,7.227-0.56,11.088-0.396
			c13.038-0.164,15.826,3.568,15.842,6.336c-0.017,6.062-15.177,25.747-20.199,31.287L33.267,63.367
			c6.718-4.354,14.016-10.811,14.653-13.467c0.179-0.942-0.436-1.779-3.168-1.583c-3.83-0.196-13.56,1.976-17.822,3.96l-3.96-6.337
			c13.798-10.319,19.274-10.479,19.406-11.882c-0.132-0.587-0.945-0.805-2.376-0.792c-7.453-0.013-22.104,6.435-26.535,9.109
			c-0.874,0.561-1.441,0.695-1.584,0.792c-0.917,0.037-1.52-0.405-1.584-1.188c0.064-1.265,2.228-4.68,3.563-6.732
			c0.738-0.786,1.018-1.4,1.188-1.583c-0.172-0.512-0.434-0.759-0.792-0.793C12.67,32.905,5.585,37.61,1.583,41.98L0,40.396
			L0,40.396z"/>
		<path d="M12.673,27.723c9.039-5.423,19.629-8.442,30.891-8.316c11.333-0.126,21.927,2.896,30.893,8.316l9.9-16.634
			C72.291,3.973,58.409,0,43.564,0C28.788,0,14.906,3.973,2.772,11.089L12.673,27.723L12.673,27.723z"/>
	</g>
</g>
</svg>
