<svg id="Layer_1" data-name="Layer 1" xmlns="http://www.w3.org/2000/svg" viewBox="0 0 266 100"><defs><style>.cls-1{fill:#3b5998;}.cls-2{fill:#fff;}</style></defs><title>Artboard 1</title><path class="cls-1" d="M0,0H266V100H0Z"/><path class="cls-2" d="M143.88,42.84a9.14,9.14,0,0,0-8.53,3.53V28.64l-8.71,1.06v41h8.71V68.3A15.9,15.9,0,0,0,139,70.63c5.07,1.81,11.76.33,14.1-6.45A22.65,22.65,0,0,0,153.43,51c-1.26-4.89-4.51-7.59-9.55-8.12Zm1.3,17.77a4.48,4.48,0,0,1-5.09,3.93,5.84,5.84,0,0,1-1.74-.39,5.91,5.91,0,0,1-2.86-4.4h0c-.14-1.93-.29-6,.65-7.85a4.48,4.48,0,0,1,4-2.32c2.62-.08,4.61,1.22,5,3.88a25.19,25.19,0,0,1,0,7.15Zm29.55-17.26a17.45,17.45,0,0,0-9.1,0c-4.52,1.2-7.55,4.06-8.52,8.61a29,29,0,0,0-.5,7.67,11.72,11.72,0,0,0,9.51,11.26l.24,0h0l.64.11.22,0h0a7.62,7.62,0,0,0,.94.11,17.63,17.63,0,0,0,3.64.07h.2a11.94,11.94,0,0,0,11.43-9.52,20.7,20.7,0,0,0,0-9.2,11.43,11.43,0,0,0-8.77-9.18Zm.37,16.82c0,.18-.06.36-.1.54a4.57,4.57,0,0,1-4.93,3.84,4.61,4.61,0,0,1-4.77-4.36,34.08,34.08,0,0,1,0-5.89c.26-3.09,2.19-4.77,5.08-4.72A4.67,4.67,0,0,1,175,53.26a26.68,26.68,0,0,1,.09,6.91Zm-131-17H37.84V39.07c.46-3.91,6.91-3.16,6.91-3.16V29.19h0c-.22-.05-12.83-3.05-15.34,6.55h0l0,.06C29,37,29,42.51,29,43.2H23.64v7.35h5.72v20h8.32v-20h6.37l.72-7.35Zm19.87,3.52-.3-.32,0,0-.2-.21c-2-2-2.7-2.49-4.24-2.94a10.63,10.63,0,0,0-13.48,7.3,23.61,23.61,0,0,0-.48,11.11c1.42,8,7.38,10.69,13.73,9.37a8.25,8.25,0,0,0,4.74-3.31,2.9,2.9,0,0,0,.27-.44v3.53H72V43.23H63.92v3.49ZM63.2,60.57a4.4,4.4,0,0,1-4.77,4,4.61,4.61,0,0,1-4.68-3.83,23.91,23.91,0,0,1,.17-7.78,4.4,4.4,0,0,1,4.76-3.36,4.33,4.33,0,0,1,4.51,4A33,33,0,0,1,63.2,60.57Zm33.65,8.22c-.38-1.38-.8-2.74-1.22-4.05l-.39-1.46s-10.18,4.88-11.77-4.4a19.89,19.89,0,0,1,.11-4.63,5,5,0,0,1,4.91-4.65,10.74,10.74,0,0,1,2.83.12c1.26.21,2.5.59,3.88.93.48-1.47,1-2.92,1.42-4.38.08-.23.14-.43.19-.61l.23-.88a1.05,1.05,0,0,0-.39-.35,4.42,4.42,0,0,0-1.25-.59l-.75-.25-.37-.11h0A21.19,21.19,0,0,0,86.07,43c-5.88.62-9.87,4.09-11,9.82a22.28,22.28,0,0,0,.11,9.09,11.05,11.05,0,0,0,8.21,8.76,20.25,20.25,0,0,0,8.86.43,28.27,28.27,0,0,0,4.32-1.3l.49-.18-.23-.78ZM123.66,58a46.73,46.73,0,0,0-.29-5.69c-.74-5.14-3.87-8.39-8.92-9.24a23.14,23.14,0,0,0-5.94-.09c-5.36.51-9.44,3.85-10.27,8.88a31.92,31.92,0,0,0-.16,9.36c.62,4.61,2.86,7.55,6.74,9h.06c1.77.53,10.45,2.8,18.09-1l-.3-1.12h0c-.36-1.5-.78-3-1.19-4.48l0-.14-.44.14h0c-.33.08-.66.19-1,.3l-.18.05a31.8,31.8,0,0,1-4.56,1,23.61,23.61,0,0,1-4.45,0c-2.43-.4-4.29-1.7-4.2-4.78h16l1.06,0V58Zm-7.83-3.75h-9.41c0-1.87.28-3.61,2-4.67a5.19,5.19,0,0,1,5.53-.16c1.84,1,2,2.85,1.93,4.83ZM242.36,43.52h-9.23l-8,12.54V28.67l-8.71,1v41h8.71V58.2l8,12.58h9.23l-8.7-13.65M204.42,43.34a17.34,17.34,0,0,0-9.1,0c-4.52,1.2-7.55,4.06-8.52,8.61a28.91,28.91,0,0,0-.5,7.66,11.71,11.71,0,0,0,9.51,11.26l.24.05h0l.64.12H197c.27,0,.59.08.93.11a17.07,17.07,0,0,0,3.65.06h.2a11.94,11.94,0,0,0,11.43-9.52,20.7,20.7,0,0,0,0-9.2,11.44,11.44,0,0,0-8.77-9.18Zm.37,16.83c0,.18-.06.36-.1.54a4.93,4.93,0,0,1-9.7-.52,34.19,34.19,0,0,1,0-5.9c.26-3.08,2.18-4.77,5.08-4.71a4.66,4.66,0,0,1,4.67,3.68,26.68,26.68,0,0,1,.09,6.91Z"/></svg>